<svg version="1.1" id="Layer_1" xmlns="http://www.w3.org/2000/svg" xmlns:xlink="http://www.w3.org/1999/xlink" x="0px" y="0px" width="200px" height="60px" viewBox="0 0 887.5 287.2" enable-background="new 0 0 887.5 287.2" xml:space="preserve">
	 <style type="text/css">
	 .st0{opacity:0.5;enable-background:new    ;}
</style>
<path class="st0" d="M781.1,212.6c-0.4-0.2-0.8-0.4-1.2-0.6c-47.6-27.9-83.5-73.7-98.2-128.6c-2.3-8.7-4.1-17.5-5.2-26.4
	c-1.2-9-1.8-18-1.9-27.1c0-1.6-0.2-1.3,1.2-2.1c17.9-10.1,36.8-17.6,56.8-22.2c7.4-1.7,14.9-3,22.4-4c10.4-1.3,20.8-1.8,31.2-1.5
	c5.8,0.1,11.7,0.5,17.5,1.1c29.2,3.1,56.5,11.9,82.1,26.3c0.4,0.2,0.7,0.4,1.1,0.6c0.4,0.2,0.6,0.5,0.6,1c0,0.5,0,1,0,1.5
	c-0.1,5.3-0.3,10.5-0.7,15.7c-0.6,7.5-1.6,15-3.1,22.4c-3.1,15.9-7.9,31.3-14.5,46.1c-10.5,23.5-24.8,44.4-42.9,62.7
	c-13,13.2-27.6,24.6-43.6,34C782.3,211.9,781.7,212.3,781.1,212.6z M684.4,35c0,0.5,0,0.9,0,1.3c0,7.5,0.5,14.9,1.4,22.3
	c0.8,6.7,2,13.3,3.5,19.9c0.3,1.2,0.6,2.3,1.1,3.4c9.1,19.4,30.3,29.7,51.2,25c16-3.6,28.9-15.9,33.4-31.7c1.2-4.4,1.6-8.8,1.8-13.3
	c0.1-3,0.4-5.9,0.9-8.8c3.4-17.9,15.4-32.6,32.1-39.6c0.9-0.4,1.9-0.7,2.8-1.1c0.1-0.1,0.3-0.1,0.3-0.3c-2.6-0.9-18.4-2.5-27.9-2.7
	c-20.3-0.4-40.2,2.3-59.7,8.1C711,21.6,697.4,27.5,684.4,35z M834.3,156.8c0.6-0.3,0.8-0.7,1.1-1c4.1-5.1,7.9-10.4,11.5-15.9
	c12.7-19.7,21.6-41,26.6-63.9c1.7-7.8,2.9-15.7,3.6-23.6c0.5-5.4,0.7-10.8,0.7-16.2c0-0.4,0-0.7-0.1-1.1c-0.5-0.3-1-0.6-1.5-0.9
	c-4.2-2.4-8.4-4.6-12.8-6.6c-6.3-2.9-12.6-5.6-19.2-7.7c-8-2.5-16.1-2.8-24.3-0.8c-23.3,5.6-38.2,28.4-33.8,52
	c2.4,13.1,9.5,23.1,20.7,30.2c0.8,0.5,1.5,0.9,2.3,1.4c8.2,5,14.6,11.7,19.2,20.2c4.8,8.9,7,18.4,6.4,28.5
	C834.6,153.1,834.4,154.9,834.3,156.8z M781.1,202.3c0.4-0.2,0.9-0.5,1.4-0.8c12.8-7.5,24.6-16.5,35.3-26.7c0.7-0.7,1.2-1.4,1.6-2.2
	c0.7-1.4,1.4-2.7,2.1-4.1c5.1-10.6,6.2-21.6,2.8-32.9c-6.6-22-27.8-34.6-49-31.9c-6.1,0.8-11.7,2.7-17,5.7
	c-10.1,5.7-20.9,8-32.4,6.9c-5.7-0.5-11.1-2-16.3-4.3c-4.1-1.8-7.9-4.1-11.4-6.8c-0.2-0.2-0.5-0.3-1-0.6c0.2,0.5,0.2,0.8,0.3,1
	c4.5,11.6,10.1,22.6,16.8,33c7.2,11.3,15.5,21.7,24.8,31.3s19.6,18.1,30.7,25.6C774.9,198.7,779.6,201.6,781.1,202.3z"></path>
<path class="st0" d="M0,107.2h49.9v25.2c2.8-3.7,6-7.3,9.4-10.8c3.4-3.4,7.2-6.4,11.3-9.1c4.2-2.6,8.8-4.7,13.8-6.3
	c5-1.5,10.7-2.3,17.1-2.3c19.1,0,33.8,5.8,44.2,17.4c10.4,11.6,15.6,27.6,15.6,48v114h-49.9v-98c0-11.8-2.6-20.7-7.9-26.7
	c-5.3-6-12.7-9-22.3-9c-9.6,0-17.2,3-22.8,9c-5.6,6-8.4,14.9-8.4,26.7v98H0V107.2z"></path>
<path class="st0" d="M284.5,287.2c-13.1,0-25.4-2.2-36.6-6.6c-11.3-4.4-21-10.6-29.2-18.7c-8.2-8.1-14.6-17.7-19.2-28.7
	c-4.6-11.1-6.9-23.4-6.9-37v-0.7c0-12.5,2.1-24.3,6.4-35.5c4.3-11.2,10.2-20.9,17.9-29.2c7.7-8.3,16.8-14.9,27.4-19.7
	c10.6-4.8,22.4-7.2,35.3-7.2c14.7,0,27.4,2.6,38.1,7.9c10.7,5.3,19.7,12.3,26.8,21.2c7.1,8.9,12.4,19.1,15.8,30.6
	c3.4,11.5,5.1,23.5,5.1,36c0,2-0.1,4.1-0.2,6.2c-0.1,2.2-0.3,4.5-0.5,6.9H242.1c2.4,11.4,7.4,20,14.9,25.8
	c7.6,5.8,16.9,8.7,28.1,8.7c8.3,0,15.8-1.4,22.3-4.3c6.6-2.8,13.4-7.4,20.4-13.8l28.6,25.3c-8.3,10.3-18.4,18.3-30.2,24.1
	C314.4,284.3,300.5,287.2,284.5,287.2z M316.7,181.4c-1.5-11.2-5.5-20.2-11.8-27.1c-6.4-6.9-14.8-10.4-25.3-10.4
	c-10.5,0-19,3.4-25.5,10.2c-6.5,6.8-10.7,15.9-12.6,27.3H316.7z"></path>
<path class="st0" d="M396.5,107.2h49.9v25.2c2.8-3.7,6-7.3,9.4-10.8c3.4-3.4,7.2-6.4,11.3-9.1c4.2-2.6,8.8-4.7,14-6.3
	c5.1-1.5,10.9-2.3,17.2-2.3c11.6,0,21.6,2.4,30.1,7.3c8.4,4.9,15,11.8,19.5,20.8c7.7-9.3,16.2-16.3,25.6-21
	c9.4-4.7,20.2-7.1,32.2-7.1c18.6,0,33.2,5.5,43.7,16.4c10.5,11,15.8,27.1,15.8,48.3v114.7h-49.9v-98c0-11.8-2.5-20.7-7.6-26.7
	c-5-6-12.3-9-21.7-9c-9.4,0-16.8,3-22.2,9c-5.4,6-8,14.9-8,26.7v98h-49.9v-98c0-11.8-2.5-20.7-7.6-26.7c-5-6-12.3-9-21.7-9
	c-9.4,0-16.8,3-22.2,9c-5.4,6-8,14.9-8,26.7v98h-49.9L396.5,107.2L396.5,107.2z"></path>
</svg>